<svg xmlns="http://www.w3.org/2000/svg" viewBox="0 0 400 700">
  <!-- 열린 책 (우하단) -->
  <g transform="translate(320,550)" opacity=".06">
    <path d="M-50,20Q-50,-10 -25,-15Q0,-10 0,0" fill="none" stroke="#8B5E4B" stroke-width="2"/>
    <path d="M50,20Q50,-10 25,-15Q0,-10 0,0" fill="none" stroke="#8B5E4B" stroke-width="2"/>
    <line x1="-40" y1="5" x2="-8" y2="-5" stroke="#8B5E4B" stroke-width=".8" opacity=".5"/>
    <line x1="-38" y1="12" x2="-10" y2="2" stroke="#8B5E4B" stroke-width=".8" opacity=".4"/>
    <line x1="8" y1="-5" x2="40" y2="5" stroke="#8B5E4B" stroke-width=".8" opacity=".5"/>
    <line x1="10" y1="2" x2="38" y2="12" stroke="#8B5E4B" stroke-width=".8" opacity=".4"/>
  </g>

  <!-- 나뭇잎 (좌상단) -->
  <g transform="translate(40,80)" opacity=".06">
    <path d="M0,0Q20,-20 40,0Q20,20 0,0Z" fill="#3D6041"/>
    <line x1="0" y1="0" x2="40" y2="0" stroke="#3D6041" stroke-width=".8" opacity=".5"/>
  </g>
  <g transform="translate(60,120) rotate(30)" opacity=".04">
    <path d="M0,0Q15,-15 30,0Q15,15 0,0Z" fill="#3D6041"/>
  </g>

  <!-- 물결선 (편지 느낌) -->
  <g stroke="#8B5E4B" fill="none" opacity=".04">
    <path d="M50,250Q100,240 150,250Q200,260 250,250Q300,240 350,250" stroke-width="1.5"/>
    <path d="M50,270Q100,260 150,270Q200,280 250,270Q300,260 350,270" stroke-width="1"/>
    <path d="M80,450Q130,440 180,450Q230,460 280,450Q330,440 370,450" stroke-width="1.2"/>
  </g>

  <!-- 점 패턴 -->
  <g fill="#8B5E4B" opacity=".03">
    <circle cx="350" cy="150" r="3"/>
    <circle cx="340" cy="170" r="2"/>
    <circle cx="360" cy="165" r="2.5"/>
    <circle cx="50" cy="350" r="2.5"/>
    <circle cx="40" cy="370" r="2"/>
    <circle cx="60" cy="365" r="3"/>
  </g>
</svg>
